<?xml version="1.0" encoding="UTF-8" standalone="no"?>
<svg
   xmlns:dc="http://purl.org/dc/elements/1.1/"
   xmlns:cc="http://creativecommons.org/ns#"
   xmlns:rdf="http://www.w3.org/1999/02/22-rdf-syntax-ns#"
   xmlns:svg="http://www.w3.org/2000/svg"
   xmlns="http://www.w3.org/2000/svg"
   xmlns:sodipodi="http://sodipodi.sourceforge.net/DTD/sodipodi-0.dtd"
   xmlns:inkscape="http://www.inkscape.org/namespaces/inkscape"
   width="220"
   height="70"
   viewBox="0 0 220 70"
   version="1.1"
   id="svg594"
   sodipodi:docname="header_left.svg"
   inkscape:version="0.92.2 5c3e80d, 2017-08-06"
   inkscape:export-filename="/Users/frosch/Downloads/header_complete.png"
   inkscape:export-xdpi="96"
   inkscape:export-ydpi="96">
  <metadata
     id="metadata600">
    <rdf:RDF>
      <cc:Work
         rdf:about="">
        <dc:format>image/svg+xml</dc:format>
        <dc:type
           rdf:resource="http://purl.org/dc/dcmitype/StillImage" />
        <dc:title>sprite</dc:title>
      </cc:Work>
    </rdf:RDF>
  </metadata>
  <defs
     id="defs598" />
  <sodipodi:namedview
     pagecolor="#ffffff"
     bordercolor="#666666"
     borderopacity="1"
     objecttolerance="10"
     gridtolerance="10"
     guidetolerance="10"
     inkscape:pageopacity="0"
     inkscape:pageshadow="2"
     inkscape:window-width="2560"
     inkscape:window-height="1418"
     id="namedview596"
     showgrid="false"
     inkscape:zoom="2.8284271"
     inkscape:cx="303.81986"
     inkscape:cy="46.672402"
     inkscape:window-x="0"
     inkscape:window-y="0"
     inkscape:window-maximized="1"
     inkscape:current-layer="layer4" />
  <title
     id="title2">sprite</title>
  <g
     inkscape:groupmode="layer"
     id="layer3"
     inkscape:label="BG white"
     style="display:inline"
     transform="translate(0,-722)">
    <rect
       style="fill:#ffffff;fill-opacity:1;stroke:none;stroke-width:15.36635113;stroke-linecap:round;stroke-linejoin:round;stroke-miterlimit:4;stroke-dasharray:none;stroke-opacity:1"
       id="rect974"
       width="500"
       height="70"
       x="0"
       y="722" />
  </g>
  <g
     inkscape:groupmode="layer"
     id="layer2"
     inkscape:label="FG"
     style="display:inline"
     transform="translate(0,-722)">
    <g
       id="g5127"
       transform="matrix(0.7,0,0,0.7,-420.30907,492.18926)">
      <path
         inkscape:connector-curvature="0"
         id="path76"
         d="m 696.34152,365.30105 a 12.41,12.41 0 0 0 -2.7,-0.3 c -2.3,0 -3.3,0.8 -3.8,2.9 l -0.4,2.1 h 6.3 l -1.2,6 h -6.3 l -3.7,19 h -7.1 l 3.7,-19 h -4 l 1.2,-6 h 4 l 0.5,-2.7 c 1.1,-5.7 4.4,-8.3 10.8,-8.3 a 18.16,18.16 0 0 1 4.6,0.6 z" />
      <path
         inkscape:connector-curvature="0"
         id="path78"
         d="m 716.84152,369.70105 -1.8,6 a 5.5,5.5 0 0 0 -2.2,-0.2 8,8 0 0 0 -7,4.2 l -2.9,15.3 h -7.2 l 4.8,-25 h 6.4 l -0.1,3.1 a 9.32,9.32 0 0 1 7.6,-3.8 c 0.7,0.1 1.5,0.2 2.4,0.4 z" />
      <path
         inkscape:connector-curvature="0"
         id="path80"
         d="m 716.34152,382.50105 c 1.6,-8 7.7,-13.1 15,-13.1 7.3,0 11.4,5.2 9.8,13.1 -1.6,7.9 -7.6,13.1 -15,13.1 -7.4,0 -11.4,-5.2 -9.8,-13.1 z m 17.5,0 c 0.9,-4.5 -0.7,-7 -3.8,-7 -3.1,0 -5.6,2.5 -6.5,7 -0.9,4.5 0.7,7 3.8,7 3.1,0 5.6,-2.5 6.5,-7 z" />
      <path
         inkscape:connector-curvature="0"
         id="path82"
         d="m 760.24152,393.00105 a 10,10 0 0 1 -6.7,2.6 c -6.1,0 -10.1,-4.8 -8.5,-13.1 1.6,-8.3 7.6,-13.1 13.7,-13.1 2.8,0 5,1.2 5.9,2.9 l 0.8,-2.3 h 6.5 l -4.8,24.5 c -1.5,7.5 -7.2,11.8 -15,11.8 -4.4,0 -8.2,-1.8 -9.9,-5 l 6.2,-3.4 a 5.18,5.18 0 0 0 4.9,2.8 6.23,6.23 0 0 0 6.4,-5.3 z m -4.1,-3.5 a 7,7 0 0 0 5.2,-2.5 l 1.8,-9.1 a 4.69,4.69 0 0 0 -4.3,-2.5 c -3.2,0 -5.7,2.4 -6.6,7 -0.9,4.6 0.7,7.1 3.9,7.1 z" />
      <path
         inkscape:connector-curvature="0"
         id="path84"
         d="m 773.64152,395.00105 7,-35.9 h 7.2 l -7,35.9 z" />
      <path
         inkscape:connector-curvature="0"
         id="path86"
         d="m 788.54152,382.50105 c 1.6,-8 7.6,-13.1 15,-13.1 7.4,0 11.4,5.2 9.9,13.1 -1.5,7.9 -7.6,13.1 -15,13.1 -7.4,0 -11.4,-5.2 -9.9,-13.1 z m 17.6,0 c 0.9,-4.5 -0.7,-7 -3.8,-7 -3.1,0 -5.6,2.5 -6.5,7 -0.9,4.5 0.7,7 3.8,7 3.1,0 5.6,-2.5 6.5,-7 z" />
      <path
         inkscape:connector-curvature="0"
         id="path88"
         d="m 832.44152,393.00105 a 10,10 0 0 1 -6.7,2.6 c -6.1,0 -10.1,-4.8 -8.5,-13.1 1.6,-8.3 7.6,-13.1 13.7,-13.1 2.7,0 5,1.2 5.9,2.9 l 0.8,-2.3 h 6.5 l -4.7,24.5 c -1.5,7.5 -7.1,11.8 -14.9,11.8 -4.4,0 -8.2,-1.8 -9.9,-5 l 6.2,-3.4 a 5.08,5.08 0 0 0 4.9,2.8 6.17,6.17 0 0 0 6.4,-5.3 z m -4,-3.5 a 7.19,7.19 0 0 0 5.2,-2.5 l 1.8,-9.1 a 4.69,4.69 0 0 0 -4.3,-2.5 c -3.2,0 -5.8,2.4 -6.7,7 -0.9,4.6 0.8,7.1 4,7.1 z" />
      <path
         inkscape:connector-curvature="0"
         id="path90"
         d="m 846.04152,395.00105 4.9,-25 h 7.2 l -4.9,25 z m 10.6,-36.3 a 3.37,3.37 0 0 1 3.4,4.2 5.24,5.24 0 0 1 -5,4.2 3.43,3.43 0 0 1 -3.5,-4.2 5.35,5.35 0 0 1 5.1,-4.2 z" />
      <path
         inkscape:connector-curvature="0"
         id="path92"
         d="m 875.74152,369.40105 c 5.5,0 9.1,3 9.7,7.8 l -7.2,1.6 a 3.37,3.37 0 0 0 -3.7,-3.3 c -3.1,0 -5.6,2.6 -6.4,7 -0.8,4.4 0.6,7 3.7,7 a 5.68,5.68 0 0 0 5,-3.3 l 6.6,1.6 a 14.23,14.23 0 0 1 -12.7,7.9 c -7.3,0 -11.3,-5.2 -9.8,-13.1 1.5,-7.9 7.5,-13.2 14.8,-13.2 z" />
      <rect
         id="rect94"
         style="fill:#ffffff"
         transform="rotate(-53)"
         height="13.1"
         width="5.6999998"
         y="734.92029"
         x="99.547783" />
      <path
         inkscape:connector-curvature="0"
         id="path96"
         style="fill:#5dc754"
         d="m 663.14152,379.20105 6.9,-9.1 -3.3,-2.5 -4.9,6.5 -1.3,-1 4.9,-6.5 -17,-12.8 -4.8,6.5 -1.3,-1 4.9,-6.5 -3.3,-2.5 -6.9,9.1 4.6,3.4 -6.4,8.5 -3.9,-2.9 -5.9,7.9 3.9,2.9 3.9,-5.2 17,12.8 -3.9,5.2 3.9,3 5.9,-7.8 -3.9,-2.9 6.4,-8.5 z m -11.9,-14.1 -3.3,-2.5 2.5,-3.3 3.3,2.5 z m 5.9,4.4 -3.3,-2.5 2.5,-3.3 3.3,2.5 z" />
      <rect
         id="rect98"
         transform="rotate(-53)"
         height="2.4000001"
         width="2.4000001"
         y="736.59888"
         x="101.99792" />
      <rect
         id="rect100"
         transform="rotate(-53)"
         height="2.4000001"
         width="2.4000001"
         y="743.96021"
         x="102.04064" />
      <rect
         y="328.30106"
         x="600.44153"
         id="rect102"
         style="fill:none"
         height="100"
         width="315" />
    </g>
  </g>
  <g
     inkscape:groupmode="layer"
     id="layer4"
     inkscape:label="line"
     style="display:inline"
     transform="translate(0,-722)">
    <path
       style="fill:none;stroke:#000000;stroke-width:1;stroke-linecap:butt;stroke-linejoin:miter;stroke-miterlimit:4;stroke-dasharray:none;stroke-opacity:1"
       d="M 0,791.5 H 220"
       id="path1231"
       inkscape:connector-curvature="0"
       sodipodi:nodetypes="cc" />
  </g>
</svg>
